<svg xmlns="http://www.w3.org/2000/svg" width="134" height="37" fill="none"><path fill="#371405" d="M19.064 36.576c-3.424 0-6.528-.736-9.312-2.208C7 32.864 4.824 30.8 3.224 28.176 1.656 25.52.872 22.528.872 19.2c0-3.328.784-6.304 2.352-8.928C4.824 7.616 7 5.552 9.752 4.08c2.784-1.504 5.904-2.256 9.36-2.256 2.912 0 5.536.512 7.872 1.536 2.368 1.024 4.352 2.496 5.952 4.416l-4.992 4.608c-2.272-2.624-5.088-3.936-8.448-3.936-2.08 0-3.936.464-5.568 1.392a9.724 9.724 0 0 0-3.84 3.792c-.896 1.632-1.344 3.488-1.344 5.568 0 2.08.448 3.936 1.344 5.568a10.06 10.06 0 0 0 3.84 3.84c1.632.896 3.488 1.344 5.568 1.344 3.36 0 6.176-1.328 8.448-3.984l4.992 4.608c-1.6 1.952-3.584 3.44-5.952 4.464-2.368 1.024-5.008 1.536-7.92 1.536ZM46.923 36.384c-2.912 0-5.184-.768-6.816-2.304-1.632-1.568-2.448-3.776-2.448-6.624V.384h7.488v26.64c0 1.088.272 1.936.816 2.544.576.576 1.376.864 2.4.864.384 0 .768-.048 1.152-.144.416-.096.736-.208.96-.336l.336 5.808a12.214 12.214 0 0 1-3.888.624ZM80.227 10.176V36h-7.153v-2.976c-1.855 2.24-4.543 3.36-8.064 3.36-2.432 0-4.64-.544-6.624-1.632-1.952-1.088-3.488-2.64-4.608-4.656-1.12-2.016-1.68-4.352-1.68-7.008 0-2.656.56-4.992 1.68-7.008 1.12-2.016 2.657-3.568 4.608-4.656 1.984-1.088 4.192-1.632 6.624-1.632 3.296 0 5.872 1.04 7.728 3.12v-2.736h7.489ZM66.306 30.24c1.888 0 3.456-.64 4.703-1.92 1.248-1.312 1.872-3.056 1.872-5.232s-.624-3.904-1.872-5.184c-1.248-1.312-2.816-1.968-4.704-1.968-1.92 0-3.503.656-4.752 1.968-1.248 1.28-1.872 3.008-1.872 5.184s.624 3.92 1.872 5.232c1.248 1.28 2.832 1.92 4.752 1.92ZM94.311 13.584c.896-1.248 2.096-2.192 3.6-2.832 1.536-.64 3.296-.96 5.28-.96v6.912c-.832-.064-1.392-.096-1.68-.096-2.144 0-3.824.608-5.04 1.824-1.216 1.184-1.824 2.976-1.824 5.376V36H87.16V10.176h7.152v3.408ZM133.617 10.176V36h-7.152v-2.976c-1.856 2.24-4.544 3.36-8.064 3.36-2.432 0-4.64-.544-6.624-1.632-1.952-1.088-3.488-2.64-4.608-4.656-1.12-2.016-1.68-4.352-1.68-7.008 0-2.656.56-4.992 1.68-7.008 1.12-2.016 2.656-3.568 4.608-4.656 1.984-1.088 4.192-1.632 6.624-1.632 3.296 0 5.872 1.04 7.728 3.12v-2.736h7.488Zm-13.92 20.064c1.888 0 3.456-.64 4.704-1.92 1.248-1.312 1.872-3.056 1.872-5.232s-.624-3.904-1.872-5.184c-1.248-1.312-2.816-1.968-4.704-1.968-1.92 0-3.504.656-4.752 1.968-1.248 1.28-1.872 3.008-1.872 5.184s.624 3.92 1.872 5.232c1.248 1.28 2.832 1.92 4.752 1.92Z"/></svg>